<svg width="23" height="22" viewBox="0 0 23 22" fill="none" xmlns="http://www.w3.org/2000/svg">
<path fill-rule="evenodd" clip-rule="evenodd" d="M0.5 4C0.5 1.79086 2.29086 0 4.5 0H18.5C20.7091 0 22.5 1.79086 22.5 4V18C22.5 20.2091 20.7091 22 18.5 22H4.5C2.29086 22 0.5 20.2091 0.5 18V4ZM6.6 8C6.6 7.50294 7.00294 7.1 7.5 7.1H8C8.49706 7.1 8.9 7.50294 8.9 8C8.9 8.49706 8.49706 8.9 8 8.9H7.5C7.00294 8.9 6.6 8.49706 6.6 8ZM7.5 12.1C7.00294 12.1 6.6 12.5029 6.6 13C6.6 13.4971 7.00294 13.9 7.5 13.9H8C8.49706 13.9 8.9 13.4971 8.9 13C8.9 12.5029 8.49706 12.1 8 12.1H7.5ZM9.6 8C9.6 7.50294 10.0029 7.1 10.5 7.1H16.5C16.9971 7.1 17.4 7.50294 17.4 8C17.4 8.49706 16.9971 8.9 16.5 8.9H10.5C10.0029 8.9 9.6 8.49706 9.6 8ZM10.5 12.1C10.0029 12.1 9.6 12.5029 9.6 13C9.6 13.4971 10.0029 13.9 10.5 13.9H16.5C16.9971 13.9 17.4 13.4971 17.4 13C17.4 12.5029 16.9971 12.1 16.5 12.1H10.5Z" fill="#3D86F2"/>
</svg>
