<svg width="25" height="24" viewBox="0 0 25 24" fill="none" xmlns="http://www.w3.org/2000/svg">
<g clip-path="url(#clip0_462_7454)">
<path fill-rule="evenodd" clip-rule="evenodd" d="M12 24C18.3513 24 23.5 18.8513 23.5 12.5C23.5 6.14873 18.3513 1 12 1C5.64873 1 0.5 6.14873 0.5 12.5C0.5 18.8513 5.64873 24 12 24ZM17.9 12.5C17.9 12.0029 17.4971 11.6 17 11.6C16.5052 11.6 16.1037 11.9993 16.1 12.4932C16.1001 12.4877 16.1001 12.483 16.1002 12.4792C16.1004 12.4708 16.0998 12.4664 16.0998 12.4664C16.0998 12.4664 16.0979 12.4708 16.0951 12.48C16.0861 12.5102 16.0618 12.591 15.9982 12.7262C15.9033 12.9278 15.7533 13.1802 15.5472 13.4378C15.1317 13.9572 14.5381 14.4378 13.7817 14.6269C12.0288 15.0651 10.2492 14.6184 9.40249 14.195C8.95791 13.9727 8.41731 14.1529 8.19502 14.5975C7.97273 15.0421 8.15293 15.5827 8.59751 15.805C9.75077 16.3816 11.9712 16.9349 14.2183 16.3731C15.4619 16.0622 16.3683 15.2928 16.9528 14.5622C17.2467 14.1948 17.4717 13.8222 17.6268 13.4926C17.7636 13.2019 17.9 12.8327 17.9 12.5Z" fill="#3D86F2"/>
</g>
<defs>
<clipPath id="clip0_462_7454">
<rect width="24" height="24" fill="white" transform="translate(0.5)"/>
</clipPath>
</defs>
</svg>
