<svg width="23" height="22" viewBox="0 0 23 22" fill="none" xmlns="http://www.w3.org/2000/svg">
<path fill-rule="evenodd" clip-rule="evenodd" d="M11.5 4C13.0142 4 14.3319 3.15865 15.0111 1.91794C15.5414 0.949048 16.3954 0 17.5 0H19.5C21.1569 0 22.5 1.34315 22.5 3V19C22.5 20.6569 21.1569 22 19.5 22H3.5C1.84315 22 0.5 20.6569 0.5 19V3C0.5 1.34315 1.84315 0 3.5 0H5.5C6.60457 0 7.45855 0.949047 7.98894 1.91794C8.66813 3.15865 9.98581 4 11.5 4ZM17.1364 8.3636C17.4879 8.71507 17.4879 9.28492 17.1364 9.63639L12.5506 14.2222C11.4181 15.3547 9.58191 15.3547 8.4494 14.2222L6.86361 12.6364C6.51214 12.2849 6.51214 11.7151 6.86361 11.3636C7.21508 11.0121 7.78493 11.0121 8.1364 11.3636L9.72219 12.9494C10.1518 13.379 10.8482 13.379 11.2778 12.9494L15.8636 8.3636C16.2151 8.01213 16.7849 8.01213 17.1364 8.3636Z" fill="#DADFE9"/>
<path d="M8.66436 0.981894C8.48368 0.460003 8.94771 0 9.49999 0H13.5C14.0523 0 14.5163 0.460003 14.3356 0.981894C13.9289 2.15653 12.813 3 11.5 3C10.187 3 9.07104 2.15653 8.66436 0.981894Z" fill="#DADFE9"/>
</svg>
