<svg xmlns="http://www.w3.org/2000/svg" width="20" height="20" viewBox="0 0 20 20" fill="none">
  <path d="M5.37503 12.9167C5.37503 12.4334 5.76678 12.0417 6.25003 12.0417H13.75C14.2333 12.0417 14.625 12.4334 14.625 12.9167C14.625 13.3999 14.2333 13.7917 13.75 13.7917H6.25003C5.76678 13.7917 5.37503 13.3999 5.37503 12.9167Z" fill="#595865"/>
  <path d="M6.25003 14.5417C5.76678 14.5417 5.37503 14.9334 5.37503 15.4167C5.37503 15.8999 5.76678 16.2917 6.25003 16.2917L13.75 16.2917C14.2333 16.2917 14.625 15.8999 14.625 15.4167C14.625 14.9334 14.2333 14.5417 13.75 14.5417L6.25003 14.5417Z" fill="#595865"/>
  <path fill-rule="evenodd" clip-rule="evenodd" d="M0.791748 2.89578C0.791748 1.77388 1.86471 1.20828 2.70841 1.20828H13.6459C13.9533 1.20828 14.2381 1.36954 14.3962 1.6331L15.5505 3.55682L17.3898 3.91911C18.2162 3.96082 19.2084 4.52525 19.2084 5.60412V17.5208C19.2084 18.6427 18.1355 19.2083 17.2917 19.2083H2.70841C1.86472 19.2083 0.791748 18.6427 0.791748 17.5208V2.89578ZM2.54175 2.99225V17.4243C2.5761 17.4408 2.63204 17.4583 2.70841 17.4583H17.2917C17.3681 17.4583 17.4241 17.4408 17.4584 17.4243V5.70058C17.4241 5.68406 17.3681 5.66662 17.2917 5.66662C17.235 5.66662 17.1783 5.66109 17.1226 5.65012L14.831 5.19873C14.5882 5.15092 14.3771 5.00257 14.2498 4.79041L13.1505 2.95828H2.70841C2.63204 2.95828 2.5761 2.97573 2.54175 2.99225Z" fill="#595865"/>
  <path fill-rule="evenodd" clip-rule="evenodd" d="M13.1187 5.21461C13.4604 5.55632 13.4604 6.11034 13.1187 6.45205L9.78539 9.78538C9.62129 9.94947 9.39873 10.0417 9.16667 10.0417C8.9346 10.0417 8.71204 9.94947 8.54795 9.78538L6.88128 8.11871C6.53957 7.777 6.53957 7.22299 6.88128 6.88128C7.22299 6.53957 7.77701 6.53957 8.11872 6.88128L9.16667 7.92922L11.8813 5.21461C12.223 4.8729 12.777 4.8729 13.1187 5.21461Z" fill="#3D86F2"/>
</svg>