<svg width="52" height="52" viewBox="0 0 52 52" fill="none" xmlns="http://www.w3.org/2000/svg">
<g id="Group 2036">
<path id="Vector 44" d="M26.7143 36.5714C5.57143 37.3133 5.7619 39.2381 0 40.7143L12 57L45.5714 48.8571L51.7143 36.2857C46.9048 36.4286 34.8571 36.2857 26.7143 36.5714Z" fill="#040001"/>
<path id="Vector 46" d="M18 40.8572V32.1429L32.5714 26.0001L32.7143 39.8572L25 43.1429L18 40.8572Z" fill="#FAE1DA"/>
<path id="Vector 45" d="M25.5715 44.7143C18.5715 45.2056 14.1905 40.2858 12.8572 37.5715L16.2857 37.1429C16.8572 38.4762 19.1212 41.3545 24.2857 42C29.1429 42.6072 33.1429 38.7143 34.2857 36.4286H37.7143C36.6191 38.9048 33.7143 44.1429 25.5715 44.7143Z" fill="#484848"/>
<path id="Vector 47" d="M18 37.9999V36.2856L32.7143 27.4285C32.6667 30.4285 32.6857 36.4856 32.5714 36.7142C32.4286 36.9999 31.8571 36.8571 30.2857 36.7142C28.7143 36.5714 26.4286 37.8571 24.8571 38.4285C23.6 38.8856 19.7143 38.2856 18 37.9999Z" fill="url(#paint0_linear_2209_1396)"/>
<g id="Vector 48" filter="url(#filter0_i_2209_1396)">
<path d="M13.3873 30.5715C11.3302 26.8001 11.5302 18.6668 12.1016 15.143L12.673 13.4287L17.673 12.143L29.673 11.4287C32.9587 12.6668 39.473 15.743 39.2444 18.143C39.0159 20.543 36.673 25.6192 35.5301 27.8572C34.1441 30.5715 30.5302 36.8519 25.3873 37.143C17.8159 37.5715 15.9588 35.2858 13.3873 30.5715Z" fill="#FCEEEB"/>
</g>
<path id="Vector 50" d="M34.4286 16.9999L33.7144 15.4285V14.8571H35.4286L39.3971 16.7647L42.4286 19.2856C42.2382 19.2856 41.8155 19.0206 40.4286 19.4285C38.0001 20.1428 37.8692 23.6832 37.0001 23.8571C36.2858 23.9999 36.0001 23.1428 35.8572 22.5713C35.6472 21.7312 35.7715 20.2571 35.7144 19.8571C35.5715 18.8571 35.0001 17.8571 34.4286 16.9999Z" fill="#6D4134"/>
<g id="Group 258">
<g id="Group 255">
<ellipse id="Ellipse 14" cx="15.714" cy="20.1428" rx="1.71429" ry="3" fill="#0A0607"/>
<ellipse id="Ellipse 15" cx="14.5499" cy="19.9681" rx="0.550152" ry="0.825228" fill="white"/>
<ellipse id="Ellipse 13" cx="25.9999" cy="20.7142" rx="1.71429" ry="3" fill="#0A0607"/>
<ellipse id="Ellipse 16" cx="24.7567" cy="20.6307" rx="0.550152" ry="0.825228" fill="white"/>
</g>
<path id="Vector 51" d="M18.2856 30.5714C18.945 30.8095 19.9999 30.8571 21.1867 30.8571C22.901 30.8571 24.0878 30.4285 25.1428 29.9999" stroke="#BB8569" stroke-width="0.4" stroke-linecap="round"/>
<g id="Ellipse 17" filter="url(#filter1_i_2209_1396)">
<path d="M20.6777 22.9957C21.8584 23.1402 21.4666 24.7902 20.7506 25.7722C20.0346 26.7542 18.8411 27.1033 18.0849 26.5519C17.3286 26.0005 17.1424 25.2651 17.8584 24.2831C18.5744 23.301 19.4299 22.9957 20.6777 22.9957Z" fill="url(#paint1_linear_2209_1396)"/>
</g>
</g>
<g id="Vector 49" filter="url(#filter2_i_2209_1396)">
<path d="M36.1429 26.2375L35.7144 21.4287C35.8096 21.4287 35.7143 22.2861 36.1429 21.7198C36.4286 21.3423 37.2777 17.2591 40.4286 17.4341C43.0001 17.577 43.0001 21.0055 42.2858 22.4341C41.2321 24.5414 37.8096 25.8566 36.1429 26.2375Z" fill="url(#paint2_linear_2209_1396)"/>
</g>
<path id="Vector 55" d="M11.7354 18.4412V13.4118H12.5736L11.7354 18.4412Z" fill="#674836"/>
<g id="Group 257">
<path id="Vector 54" d="M42.1429 21.1429C42.2572 20.4571 41.1429 18.381 40.8572 18L46.5715 22C47 22.2857 46.8 22.9143 46.5715 23.1429C46.3429 23.3714 43.1429 23.3333 41.5715 23.2857C41.7143 22.8571 42.0286 21.8286 42.1429 21.1429Z" fill="#0061F2"/>
<g id="Group 256">
<g id="Vector 52" filter="url(#filter3_i_2209_1396)">
<path d="M29.1448 13.9889C22.7476 12.9227 16.3353 13.3222 11.7163 13.7032C11.7162 10.9889 11.165 -1.40693 28.8591 0.131705C38.7162 0.988857 40.621 11.6079 40.2877 16.846C41.002 17.2746 41.205 17.3231 42.1448 17.9889C45.5734 20.4174 45.7162 20.846 46.7162 22.1317L39.7162 17.5603C37.1924 16.3698 34.2877 14.846 29.1448 13.9889Z" fill="#0C88FA"/>
</g>
<path id="Vector 53" d="M24.7143 12L17 11.7143C17 10.5715 17.5714 8.71435 20.5714 8.57149C23.5714 8.42863 24.8571 11.2858 24.7143 12Z" fill="#5F2814"/>
</g>
</g>
</g>
<defs>
<filter id="filter0_i_2209_1396" x="11.7144" y="10.8287" width="27.5359" height="26.3652" filterUnits="userSpaceOnUse" color-interpolation-filters="sRGB">
<feFlood flood-opacity="0" result="BackgroundImageFix"/>
<feBlend mode="normal" in="SourceGraphic" in2="BackgroundImageFix" result="shape"/>
<feColorMatrix in="SourceAlpha" type="matrix" values="0 0 0 0 0 0 0 0 0 0 0 0 0 0 0 0 0 0 127 0" result="hardAlpha"/>
<feOffset dy="-0.8"/>
<feGaussianBlur stdDeviation="0.3"/>
<feComposite in2="hardAlpha" operator="arithmetic" k2="-1" k3="1"/>
<feColorMatrix type="matrix" values="0 0 0 0 0.972549 0 0 0 0 0.882353 0 0 0 0 0.858824 0 0 0 1 0"/>
<feBlend mode="normal" in2="shape" result="effect1_innerShadow_2209_1396"/>
</filter>
<filter id="filter1_i_2209_1396" x="15.4089" y="20.9957" width="6.02148" height="5.81769" filterUnits="userSpaceOnUse" color-interpolation-filters="sRGB">
<feFlood flood-opacity="0" result="BackgroundImageFix"/>
<feBlend mode="normal" in="SourceGraphic" in2="BackgroundImageFix" result="shape"/>
<feColorMatrix in="SourceAlpha" type="matrix" values="0 0 0 0 0 0 0 0 0 0 0 0 0 0 0 0 0 0 127 0" result="hardAlpha"/>
<feOffset dx="-2" dy="-2"/>
<feGaussianBlur stdDeviation="2"/>
<feComposite in2="hardAlpha" operator="arithmetic" k2="-1" k3="1"/>
<feColorMatrix type="matrix" values="0 0 0 0 1 0 0 0 0 1 0 0 0 0 1 0 0 0 0.25 0"/>
<feBlend mode="normal" in2="shape" result="effect1_innerShadow_2209_1396"/>
</filter>
<filter id="filter2_i_2209_1396" x="35.5144" y="17.4286" width="7.17949" height="9.10887" filterUnits="userSpaceOnUse" color-interpolation-filters="sRGB">
<feFlood flood-opacity="0" result="BackgroundImageFix"/>
<feBlend mode="normal" in="SourceGraphic" in2="BackgroundImageFix" result="shape"/>
<feColorMatrix in="SourceAlpha" type="matrix" values="0 0 0 0 0 0 0 0 0 0 0 0 0 0 0 0 0 0 127 0" result="hardAlpha"/>
<feOffset dx="-0.2" dy="0.3"/>
<feGaussianBlur stdDeviation="0.3"/>
<feComposite in2="hardAlpha" operator="arithmetic" k2="-1" k3="1"/>
<feColorMatrix type="matrix" values="0 0 0 0 1 0 0 0 0 0.980392 0 0 0 0 0.972549 0 0 0 1 0"/>
<feBlend mode="normal" in2="shape" result="effect1_innerShadow_2209_1396"/>
</filter>
<filter id="filter3_i_2209_1396" x="11.7144" y="0" width="35.002" height="24.1317" filterUnits="userSpaceOnUse" color-interpolation-filters="sRGB">
<feFlood flood-opacity="0" result="BackgroundImageFix"/>
<feBlend mode="normal" in="SourceGraphic" in2="BackgroundImageFix" result="shape"/>
<feColorMatrix in="SourceAlpha" type="matrix" values="0 0 0 0 0 0 0 0 0 0 0 0 0 0 0 0 0 0 127 0" result="hardAlpha"/>
<feOffset dy="2"/>
<feGaussianBlur stdDeviation="2"/>
<feComposite in2="hardAlpha" operator="arithmetic" k2="-1" k3="1"/>
<feColorMatrix type="matrix" values="0 0 0 0 0.341667 0 0 0 0 0.50462 0 0 0 0 1 0 0 0 1 0"/>
<feBlend mode="normal" in2="shape" result="effect1_innerShadow_2209_1396"/>
</filter>
<linearGradient id="paint0_linear_2209_1396" x1="25.3571" y1="27.4285" x2="25.3571" y2="38.6224" gradientUnits="userSpaceOnUse">
<stop stop-color="#F6C3B2"/>
<stop offset="1" stop-color="#FFDDD3"/>
</linearGradient>
<linearGradient id="paint1_linear_2209_1396" x1="18.012" y1="23.7755" x2="19.8584" y2="25.2831" gradientUnits="userSpaceOnUse">
<stop stop-color="#EFBBA5"/>
<stop offset="1" stop-color="#FAEDE7"/>
</linearGradient>
<linearGradient id="paint2_linear_2209_1396" x1="41.2858" y1="17.7198" x2="34.7143" y2="24.1429" gradientUnits="userSpaceOnUse">
<stop stop-color="#FFC8AD"/>
<stop offset="1" stop-color="#FCEEEB"/>
</linearGradient>
</defs>
</svg>
