<svg width="29" height="28" viewBox="0 0 29 28" fill="none" xmlns="http://www.w3.org/2000/svg">
<g id="&#233;&#147;&#182;&#232;&#161;&#140;&#229;&#141;&#161;" clip-path="url(#clip0_38_1244)">
<rect width="28" height="28" transform="translate(0.5)" fill="white" fill-opacity="0.01"/>
<rect id="Rectangle 1597" x="3.5" y="7" width="25" height="19" rx="2" fill="#44C9DA"/>
<g id="Vector" filter="url(#filter0_bd_38_1244)">
<path d="M26.6333 5.07265V9.09167H0.5V5.07265C0.5 3.72644 1.382 2.625 2.46 2.625H24.6733C25.7513 2.625 26.6333 3.72644 26.6333 5.07265ZM0.5 9.09167V21.5107C0.5 22.8569 1.382 23.9583 2.46 23.9583H24.6733C25.7513 23.9583 26.6333 22.8569 26.6333 21.5107V9.09167H0.5Z" fill="url(#paint0_linear_38_1244)" fill-opacity="0.3" shape-rendering="crispEdges"/>
<path d="M26.1333 5.07265V8.59167H1V5.07265C1 3.89319 1.7561 3.125 2.46 3.125H24.6733C25.3772 3.125 26.1333 3.89319 26.1333 5.07265ZM1 21.5107V9.59167H26.1333V21.5107C26.1333 22.6901 25.3772 23.4583 24.6733 23.4583H2.46C1.7561 23.4583 1 22.6901 1 21.5107Z" stroke="url(#paint1_linear_38_1244)" stroke-opacity="0.1" shape-rendering="crispEdges"/>
</g>
<path id="Vector 82" d="M4 17.5H13.625" stroke="white" stroke-opacity="0.6" stroke-width="2" stroke-linecap="round"/>
<path id="Vector 83" d="M0.56665 7.55835H26.5666" stroke="white" stroke-opacity="0.6" stroke-width="1.5"/>
</g>
<defs>
<filter id="filter0_bd_38_1244" x="-5.5" y="-3.375" width="38.1333" height="33.3333" filterUnits="userSpaceOnUse" color-interpolation-filters="sRGB">
<feFlood flood-opacity="0" result="BackgroundImageFix"/>
<feGaussianBlur in="BackgroundImageFix" stdDeviation="3"/>
<feComposite in2="SourceAlpha" operator="in" result="effect1_backgroundBlur_38_1244"/>
<feColorMatrix in="SourceAlpha" type="matrix" values="0 0 0 0 0 0 0 0 0 0 0 0 0 0 0 0 0 0 127 0" result="hardAlpha"/>
<feOffset dy="2"/>
<feGaussianBlur stdDeviation="2"/>
<feComposite in2="hardAlpha" operator="out"/>
<feColorMatrix type="matrix" values="0 0 0 0 0 0 0 0 0 0.720833 0 0 0 0 0.686178 0 0 0 0.1 0"/>
<feBlend mode="normal" in2="effect1_backgroundBlur_38_1244" result="effect2_dropShadow_38_1244"/>
<feBlend mode="normal" in="SourceGraphic" in2="effect2_dropShadow_38_1244" result="shape"/>
</filter>
<linearGradient id="paint0_linear_38_1244" x1="0.5" y1="12.425" x2="26.6333" y2="12.2917" gradientUnits="userSpaceOnUse">
<stop stop-color="#D0F0EF"/>
<stop offset="0.546875" stop-color="#3BDBD3"/>
<stop offset="1" stop-color="#A4E1DC"/>
</linearGradient>
<linearGradient id="paint1_linear_38_1244" x1="22.8125" y1="20.125" x2="15.8125" y2="4.8125" gradientUnits="userSpaceOnUse">
<stop stop-color="white"/>
<stop offset="1" stop-color="white" stop-opacity="0"/>
</linearGradient>
<clipPath id="clip0_38_1244">
<rect width="28" height="28" fill="white" transform="translate(0.5)"/>
</clipPath>
</defs>
</svg>
