<svg width="37" height="36" viewBox="0 0 37 36" fill="none" xmlns="http://www.w3.org/2000/svg">
<g clip-path="url(#clip0_599_2241)">
<rect width="36" height="36" transform="translate(0.5)" fill="white" fill-opacity="0.01"/>
<rect x="3.5" y="7" width="25" height="19" rx="2" fill="url(#paint0_linear_599_2241)"/>
<g filter="url(#filter0_bd_599_2241)">
<path d="M35.1 6.52198V11.6893H1.5V6.52198C1.5 4.79114 2.634 3.375 4.02 3.375H32.58C33.966 3.375 35.1 4.79114 35.1 6.52198ZM1.5 11.6893V27.6566C1.5 29.3874 2.634 30.8036 4.02 30.8036H32.58C33.966 30.8036 35.1 29.3874 35.1 27.6566V11.6893H1.5Z" fill="url(#paint1_linear_599_2241)" fill-opacity="0.3" shape-rendering="crispEdges"/>
<path d="M34.6 6.52198V11.1893H2V6.52198C2 4.95789 3.0081 3.875 4.02 3.875H32.58C33.5919 3.875 34.6 4.95789 34.6 6.52198ZM2 27.6566V12.1893H34.6V27.6566C34.6 29.2207 33.5919 30.3036 32.58 30.3036H4.02C3.0081 30.3036 2 29.2207 2 27.6566Z" stroke="url(#paint2_linear_599_2241)" stroke-opacity="0.1" shape-rendering="crispEdges"/>
</g>
<path d="M6 22.5H18.375" stroke="white" stroke-opacity="0.6" stroke-width="2.5" stroke-linecap="round"/>
<path d="M1.58569 9.71786H35.0143" stroke="white" stroke-opacity="0.6" stroke-width="2.5"/>
</g>
<defs>
<filter id="filter0_bd_599_2241" x="-6.5" y="-4.625" width="49.6001" height="43.4286" filterUnits="userSpaceOnUse" color-interpolation-filters="sRGB">
<feFlood flood-opacity="0" result="BackgroundImageFix"/>
<feGaussianBlur in="BackgroundImageFix" stdDeviation="4"/>
<feComposite in2="SourceAlpha" operator="in" result="effect1_backgroundBlur_599_2241"/>
<feColorMatrix in="SourceAlpha" type="matrix" values="0 0 0 0 0 0 0 0 0 0 0 0 0 0 0 0 0 0 127 0" result="hardAlpha"/>
<feOffset dy="2"/>
<feGaussianBlur stdDeviation="2"/>
<feComposite in2="hardAlpha" operator="out"/>
<feColorMatrix type="matrix" values="0 0 0 0 0 0 0 0 0 0.720833 0 0 0 0 0.686178 0 0 0 0.1 0"/>
<feBlend mode="normal" in2="effect1_backgroundBlur_599_2241" result="effect2_dropShadow_599_2241"/>
<feBlend mode="normal" in="SourceGraphic" in2="effect2_dropShadow_599_2241" result="shape"/>
</filter>
<linearGradient id="paint0_linear_599_2241" x1="16" y1="7" x2="16" y2="26" gradientUnits="userSpaceOnUse">
<stop stop-color="#43BECE"/>
<stop offset="1" stop-color="#43BECE" stop-opacity="0"/>
</linearGradient>
<linearGradient id="paint1_linear_599_2241" x1="1.5" y1="15.975" x2="35.1" y2="15.8036" gradientUnits="userSpaceOnUse">
<stop stop-color="#D0F0EF"/>
<stop offset="0.546875" stop-color="#3BDBD3"/>
<stop offset="1" stop-color="#A4E1DC"/>
</linearGradient>
<linearGradient id="paint2_linear_599_2241" x1="30.1875" y1="25.875" x2="21.1875" y2="6.1875" gradientUnits="userSpaceOnUse">
<stop stop-color="white"/>
<stop offset="1" stop-color="white" stop-opacity="0"/>
</linearGradient>
<clipPath id="clip0_599_2241">
<rect width="36" height="36" fill="white" transform="translate(0.5)"/>
</clipPath>
</defs>
</svg>
