<svg width="36" height="36" viewBox="0 0 36 36" fill="none" xmlns="http://www.w3.org/2000/svg">
<g clip-path="url(#clip0_599_2244)">
<rect width="36" height="36" fill="white" fill-opacity="0.01"/>
<rect x="3" y="7" width="23.9565" height="19" rx="2" fill="url(#paint0_linear_599_2244)"/>
<g filter="url(#filter0_bd_599_2244)">
<path d="M31.2047 30.8571H4.93817C4.15892 30.8571 3.41158 30.6463 2.86057 30.2711C2.30956 29.8959 2 29.3869 2 28.8563V5.85804C2 5.32737 2.30956 4.81844 2.86057 4.4432C3.41158 4.06795 4.15892 3.85715 4.93817 3.85715H31.2047C31.9839 3.85715 32.7313 4.06795 33.2823 4.4432C33.8333 4.81844 34.1429 5.32737 34.1429 5.85804V28.8563C34.1429 29.3869 33.8333 29.8959 33.2823 30.2711C32.7313 30.6463 31.9839 30.8571 31.2047 30.8571Z" fill="url(#paint1_linear_599_2244)" fill-opacity="0.5" shape-rendering="crispEdges"/>
<path d="M31.2047 30.3571H4.93817C4.24192 30.3571 3.59675 30.1675 3.14201 29.8578C2.68824 29.5488 2.5 29.1788 2.5 28.8563V5.85804C2.5 5.53545 2.68824 5.16548 3.14201 4.85647C3.59675 4.54679 4.24192 4.35715 4.93817 4.35715H31.2047C31.9009 4.35715 32.5461 4.54679 33.0009 4.85647C33.4546 5.16548 33.6429 5.53545 33.6429 5.85804V28.8563C33.6429 29.1788 33.4546 29.5488 33.0009 29.8578C32.5461 30.1675 31.9009 30.3571 31.2047 30.3571Z" stroke="url(#paint2_linear_599_2244)" stroke-opacity="0.06" shape-rendering="crispEdges"/>
</g>
<path d="M8.75 25.875H26.75" stroke="white" stroke-opacity="0.6" stroke-width="2.5" stroke-linecap="round"/>
<path d="M8.75 21.375H15.5" stroke="white" stroke-opacity="0.6" stroke-width="2.5" stroke-linecap="round"/>
<path d="M9 4V12L11.9455 10.1037L15 12V4" stroke="url(#paint3_linear_599_2244)" stroke-opacity="0.5" stroke-width="2.5" stroke-linejoin="round"/>
</g>
<defs>
<filter id="filter0_bd_599_2244" x="-6" y="-4.14285" width="48.1428" height="43" filterUnits="userSpaceOnUse" color-interpolation-filters="sRGB">
<feFlood flood-opacity="0" result="BackgroundImageFix"/>
<feGaussianBlur in="BackgroundImageFix" stdDeviation="4"/>
<feComposite in2="SourceAlpha" operator="in" result="effect1_backgroundBlur_599_2244"/>
<feColorMatrix in="SourceAlpha" type="matrix" values="0 0 0 0 0 0 0 0 0 0 0 0 0 0 0 0 0 0 127 0" result="hardAlpha"/>
<feOffset dy="2"/>
<feGaussianBlur stdDeviation="2"/>
<feComposite in2="hardAlpha" operator="out"/>
<feColorMatrix type="matrix" values="0 0 0 0 0.54375 0 0 0 0 0.4125 0 0 0 0 1 0 0 0 0.1 0"/>
<feBlend mode="normal" in2="effect1_backgroundBlur_599_2244" result="effect2_dropShadow_599_2244"/>
<feBlend mode="normal" in="SourceGraphic" in2="effect2_dropShadow_599_2244" result="shape"/>
</filter>
<linearGradient id="paint0_linear_599_2244" x1="14.9783" y1="7" x2="14.9783" y2="26" gradientUnits="userSpaceOnUse">
<stop stop-color="#8871D3"/>
<stop offset="1" stop-color="#8871D3" stop-opacity="0"/>
</linearGradient>
<linearGradient id="paint1_linear_599_2244" x1="2" y1="16.0915" x2="34.1433" y2="16.5696" gradientUnits="userSpaceOnUse">
<stop stop-color="#BDACFF"/>
<stop offset="0.515625" stop-color="#B5A3F9"/>
<stop offset="1" stop-color="#C8BCFA"/>
</linearGradient>
<linearGradient id="paint2_linear_599_2244" x1="32.1339" y1="25.4519" x2="20.3959" y2="9.15588" gradientUnits="userSpaceOnUse">
<stop stop-color="white"/>
<stop offset="1" stop-color="white" stop-opacity="0"/>
</linearGradient>
<linearGradient id="paint3_linear_599_2244" x1="12" y1="4" x2="12" y2="12" gradientUnits="userSpaceOnUse">
<stop stop-color="white" stop-opacity="0.6"/>
<stop offset="1" stop-color="white"/>
</linearGradient>
<clipPath id="clip0_599_2244">
<rect width="36" height="36" fill="white"/>
</clipPath>
</defs>
</svg>
