<svg xmlns="http://www.w3.org/2000/svg" width="20" height="20" viewBox="0 0 20 20" fill="none">
  <g clip-path="url(#clip0_38_1273)">
    <path fill-rule="evenodd" clip-rule="evenodd" d="M10.0001 2.54167C5.88097 2.54167 2.54175 5.88088 2.54175 10V17.4583H10.0001C14.1192 17.4583 17.4584 14.1191 17.4584 10C17.4584 5.88088 14.1192 2.54167 10.0001 2.54167ZM1.66675 18.3333L0.791748 18.3333V10C0.791748 4.91437 4.91447 0.791668 10.0001 0.791668C15.0857 0.791668 19.2084 4.91438 19.2084 10C19.2084 15.0856 15.0857 19.2083 10.0001 19.2083H1.66701L1.66675 18.3333ZM1.66675 18.3333L1.66701 19.2083C1.18377 19.2083 0.791748 18.8165 0.791748 18.3333L1.66675 18.3333Z" fill="#595865"/>
    <path fill-rule="evenodd" clip-rule="evenodd" d="M4.95825 7.5C4.95825 7.01675 5.35 6.625 5.83325 6.625H13.3333C13.8165 6.625 14.2083 7.01675 14.2083 7.5C14.2083 7.98325 13.8165 8.375 13.3333 8.375H5.83325C5.35 8.375 4.95825 7.98325 4.95825 7.5Z" fill="#595865"/>
    <path fill-rule="evenodd" clip-rule="evenodd" d="M4.95825 10.8333C4.95825 10.3501 5.35 9.95834 5.83325 9.95834H13.3333C13.8165 9.95834 14.2083 10.3501 14.2083 10.8333C14.2083 11.3166 13.8165 11.7083 13.3333 11.7083H5.83325C5.35 11.7083 4.95825 11.3166 4.95825 10.8333Z" fill="#3D86F2"/>
    <path fill-rule="evenodd" clip-rule="evenodd" d="M4.95825 14.1667C4.95825 13.6834 5.35 13.2917 5.83325 13.2917H9.99992C10.4832 13.2917 10.8749 13.6834 10.8749 14.1667C10.8749 14.6499 10.4832 15.0417 9.99992 15.0417H5.83325C5.35 15.0417 4.95825 14.6499 4.95825 14.1667Z" fill="#3D86F2"/>
  </g>
  <defs>
    <clipPath id="clip0_38_1273">
      <rect width="20" height="20" fill="white"/>
    </clipPath>
  </defs>
</svg>