<svg width="14" height="14" viewBox="0 0 14 14" fill="none" xmlns="http://www.w3.org/2000/svg">
<g id="square/outline/exit">
<path id="Union" fill-rule="evenodd" clip-rule="evenodd" d="M10 12.3843C10 12.0349 9.7278 11.7555 9.38682 11.7555H1.89172C1.69938 11.7555 1.52405 11.6997 1.40111 11.618C1.27495 11.5343 1.22635 11.4409 1.22635 11.369V2.6179C1.22635 2.54599 1.27495 2.45262 1.40111 2.36885C1.52405 2.28721 1.69938 2.23144 1.89172 2.23144H9.33464C9.67258 2.23144 9.94781 1.95507 9.94781 1.61572C9.94781 1.27637 9.67258 1 9.33464 1H1.89172C0.87684 1 0 1.70294 0 2.62445V11.3755C0 12.2971 0.87684 13 1.89172 13H9.38682C9.72477 13 10 12.7236 10 12.3843Z" fill="#595865"/>
<path id="Union_2" fill-rule="evenodd" clip-rule="evenodd" d="M13.9993 7.00929C14.0078 6.79731 13.9368 6.61012 13.8163 6.46326L13.8118 6.45788C13.7995 6.44395 13.7871 6.43346 13.7761 6.42551L11.8309 4.22251C11.569 3.92583 11.1427 3.92583 10.8807 4.22251C10.6188 4.51918 10.6188 5.002 10.8807 5.29868L11.6098 6.12441H5.66978C5.30064 6.12441 5 6.46491 5 6.88299C5 7.30107 5.30064 7.64156 5.66978 7.64156H11.8093L10.8736 8.70132C10.6116 8.998 10.6116 9.48082 10.8736 9.77749C11.1355 10.0742 11.5618 10.0742 11.8238 9.77749L13.7689 7.57449C13.78 7.56655 13.7923 7.55605 13.8046 7.54212C13.9397 7.38919 13.9983 7.20106 13.9993 7.00929Z" fill="#3D86F2"/>
</g>
</svg>
