<svg width="36" height="36" viewBox="0 0 36 36" fill="none" xmlns="http://www.w3.org/2000/svg">
<g clip-path="url(#clip0_599_2238)">
<rect width="36" height="36" fill="white" fill-opacity="0.01"/>
<path d="M1.1763 8.35876C0.800509 6.21475 2.20809 4.16382 4.34381 3.74348L19.3003 0.799863C21.5215 0.362696 23.6625 1.8544 24.022 4.08953L25.9099 15.8308C26.2426 17.8994 24.9226 19.8742 22.884 20.3578L8.19246 23.8432C5.95211 24.3747 3.72673 22.9097 3.32921 20.6418L1.1763 8.35876Z" fill="#FFA843"/>
<g filter="url(#filter0_bd_599_2238)">
<path d="M4.32461 5.14285H31.6753C32.4812 5.14285 33.2542 5.45892 33.8241 6.02153C34.394 6.58414 34.7142 7.3472 34.7142 8.14285V29.1429C34.7142 29.9385 34.394 30.7016 33.8241 31.2642C33.2542 31.8268 32.4812 32.1429 31.6753 32.1429H4.32461C3.51862 32.1429 2.74565 31.8268 2.17574 31.2642C1.60582 30.7016 1.28564 29.9385 1.28564 29.1429V8.14285C1.28564 7.3472 1.60582 6.58414 2.17574 6.02153C2.74565 5.45892 3.51862 5.14285 4.32461 5.14285Z" fill="url(#paint0_linear_599_2238)" fill-opacity="0.6" shape-rendering="crispEdges"/>
<path d="M4.32461 5.64285H31.6753C32.3507 5.64285 32.9972 5.90779 33.4729 6.37736C33.9483 6.84671 34.2142 7.48191 34.2142 8.14285V29.1429C34.2142 29.8038 33.9483 30.439 33.4729 30.9083C32.9972 31.3779 32.3507 31.6429 31.6753 31.6429H4.32461C3.64916 31.6429 3.00267 31.3779 2.527 30.9083C2.05155 30.439 1.78564 29.8038 1.78564 29.1429V8.14285C1.78564 7.48191 2.05155 6.84671 2.527 6.37736C3.00267 5.90779 3.64916 5.64285 4.32461 5.64285Z" stroke="url(#paint1_linear_599_2238)" stroke-opacity="0.2" shape-rendering="crispEdges"/>
</g>
<path d="M11.7349 17.9482C11.3992 18.0817 11.0394 18.1504 10.6761 18.1504C9.94235 18.1504 9.23865 17.8706 8.71981 17.3725C8.20097 16.8744 7.90949 16.1988 7.90949 15.4944C7.90949 14.79 8.20097 14.1145 8.71981 13.6164C9.23865 13.1183 9.94235 12.8384 10.6761 12.8384C11.0394 12.8384 11.3992 12.9071 11.7349 13.0406C12.0705 13.1741 12.3755 13.3697 12.6324 13.6163C12.8893 13.863 13.0931 14.1558 13.2322 14.478C13.3712 14.8002 13.4428 15.1456 13.4428 15.4944C13.4428 15.8432 13.3712 16.1886 13.2322 16.5108C13.0931 16.8331 12.8893 17.1259 12.6324 17.3725C12.3755 17.6191 12.0705 17.8147 11.7349 17.9482Z" fill="white" fill-opacity="0.6"/>
<path d="M8.55861 19.8827C9.22994 19.6158 9.94946 19.4784 10.6761 19.4784C12.1436 19.4784 13.551 20.038 14.5887 21.0342C15.6264 22.0304 16.2094 23.3815 16.2094 24.7903C16.2094 25.1425 16.0636 25.4803 15.8042 25.7294C15.5448 25.9784 15.1929 26.1183 14.8261 26.1183H6.52614C6.15926 26.1183 5.80741 25.9784 5.54799 25.7294C5.28856 25.4803 5.14282 25.1425 5.14282 24.7903C5.14282 24.0927 5.28594 23.402 5.56402 22.7575C5.84209 22.1131 6.24967 21.5275 6.76348 21.0342C7.27729 20.5409 7.88728 20.1497 8.55861 19.8827Z" fill="white" fill-opacity="0.6"/>
<path d="M20.5715 22.7664H29.8464" stroke="white" stroke-opacity="0.5" stroke-width="2.5" stroke-linecap="round"/>
<path d="M20.5715 16.6956H29.8464" stroke="white" stroke-opacity="0.5" stroke-width="2.5" stroke-linecap="round"/>
</g>
<defs>
<filter id="filter0_bd_599_2238" x="-6.71436" y="-2.85715" width="49.4285" height="43" filterUnits="userSpaceOnUse" color-interpolation-filters="sRGB">
<feFlood flood-opacity="0" result="BackgroundImageFix"/>
<feGaussianBlur in="BackgroundImageFix" stdDeviation="4"/>
<feComposite in2="SourceAlpha" operator="in" result="effect1_backgroundBlur_599_2238"/>
<feColorMatrix in="SourceAlpha" type="matrix" values="0 0 0 0 0 0 0 0 0 0 0 0 0 0 0 0 0 0 127 0" result="hardAlpha"/>
<feOffset dy="2"/>
<feGaussianBlur stdDeviation="2"/>
<feComposite in2="hardAlpha" operator="out"/>
<feColorMatrix type="matrix" values="0 0 0 0 0.9 0 0 0 0 0.633243 0 0 0 0 0.01875 0 0 0 0.1 0"/>
<feBlend mode="normal" in2="effect1_backgroundBlur_599_2238" result="effect2_dropShadow_599_2238"/>
<feBlend mode="normal" in="SourceGraphic" in2="effect2_dropShadow_599_2238" result="shape"/>
</filter>
<linearGradient id="paint0_linear_599_2238" x1="1.28564" y1="17.1241" x2="34.7141" y2="16.6932" gradientUnits="userSpaceOnUse">
<stop stop-color="#FFC79B"/>
<stop offset="0.515625" stop-color="#FFE6D3"/>
<stop offset="1" stop-color="#FFC89E"/>
</linearGradient>
<linearGradient id="paint1_linear_599_2238" x1="11.359" y1="4.58912" x2="11.9999" y2="11.5584" gradientUnits="userSpaceOnUse">
<stop stop-color="white"/>
<stop offset="1" stop-color="white" stop-opacity="0"/>
</linearGradient>
<clipPath id="clip0_599_2238">
<rect width="36" height="36" fill="white"/>
</clipPath>
</defs>
</svg>
