<svg xmlns="http://www.w3.org/2000/svg" width="20" height="20" viewBox="0 0 20 20" fill="none">
  <g clip-path="url(#clip0_2209_609)">
    <path fill-rule="evenodd" clip-rule="evenodd" d="M14.0014 1.22916C13.7598 0.81066 13.2247 0.667269 12.8062 0.908892L7.23568 4.12501H2.50008C1.5566 4.12501 0.791748 4.88983 0.791748 5.83334V17.5C0.791748 18.4435 1.5566 19.2083 2.50008 19.2083H17.5001C18.4436 19.2083 19.2084 18.4435 19.2084 17.5V5.83334C19.2084 4.88984 18.4436 4.12501 17.5001 4.12501H15.6734L14.0014 1.22916ZM13.649 4.11873L10.752 4.11558L12.9234 2.86194L13.649 4.11873ZM2.54175 17.4583V5.87501H17.4584V17.4583H2.54175Z" fill="#595865"/>
    <path fill-rule="evenodd" clip-rule="evenodd" d="M10.375 11.6667C10.375 9.99309 11.7868 8.70833 13.4375 8.70833H18.3333C18.8166 8.70833 19.2083 9.10008 19.2083 9.58333V13.75C19.2083 14.2332 18.8166 14.625 18.3333 14.625H13.4375C11.7868 14.625 10.375 13.3402 10.375 11.6667ZM13.4375 10.4583C12.6719 10.4583 12.125 11.0391 12.125 11.6667C12.125 12.2943 12.6719 12.875 13.4375 12.875H17.4583V10.4583H13.4375Z" fill="#3D86F2"/>
    <path d="M18.3333 6.875V16.875" stroke="#595865" stroke-width="1.4" stroke-linecap="round"/>
  </g>
  <defs>
    <clipPath id="clip0_2209_609">
      <rect width="20" height="20" fill="white"/>
    </clipPath>
  </defs>
</svg>