<svg width="36" height="36" viewBox="0 0 36 36" fill="none" xmlns="http://www.w3.org/2000/svg">
<g clip-path="url(#clip0_599_2247)">
<rect width="36" height="36" fill="white" fill-opacity="0.01"/>
<path d="M11.8328 6.98263C15.2466 3.36742 20.9446 3.20407 24.5598 6.61778C28.175 10.0315 28.3384 15.7296 24.9247 19.3448L21.9219 22.5248C18.5082 26.14 12.8101 26.3034 9.19491 22.8896C5.5797 19.4759 5.41635 13.7779 8.83006 10.1626L11.8328 6.98263Z" fill="url(#paint0_linear_599_2247)"/>
<g filter="url(#filter0_bd_599_2247)">
<path d="M34.875 12.8239C34.875 6.9947 30.3122 2.25 24.712 2.25C21.9457 2.25 19.3277 3.44659 17.4375 5.48786C15.5448 3.44663 12.9241 2.25 10.163 2.25C4.56019 2.25 0 6.9921 0 12.8239C0 13.0194 0.0182081 13.1941 0.0337908 13.3375C0.0311993 13.3844 0.0286079 13.4313 0.0286079 13.4809C0.0286079 14.5132 0.278169 15.6472 0.76955 16.8517C0.785166 16.896 0.800749 16.9377 0.818957 16.9767C3.91543 24.4249 15.836 32.994 16.3429 33.3876C16.6575 33.6301 17.0318 33.75 17.4089 33.75C17.7911 33.75 18.1681 33.6249 18.4852 33.3772C18.9194 33.0384 29.0876 25.6997 33.1226 18.7573C33.276 18.5227 33.3904 18.296 33.4918 18.1003C33.523 18.0378 33.5516 17.9753 33.5854 17.9153L33.5984 17.8866C33.6114 17.8631 33.627 17.837 33.6426 17.8162C33.8844 17.3443 34.0767 16.9064 34.2302 16.4788C34.6487 15.3787 34.8542 14.3984 34.8542 13.4834C34.8542 13.413 34.8515 13.3505 34.8464 13.2983C34.8595 13.1784 34.875 13.0168 34.875 12.8239Z" fill="url(#paint1_linear_599_2247)" fill-opacity="0.4" shape-rendering="crispEdges"/>
<path d="M17.0709 5.82783L17.4378 6.2235L17.8044 5.82758C19.6047 3.88338 22.0918 2.75 24.712 2.75C30.0177 2.75 34.375 7.25206 34.375 12.8239C34.375 12.99 34.3617 13.1309 34.3493 13.244L34.3437 13.2958L34.3488 13.3477C34.3519 13.3789 34.3542 13.4242 34.3542 13.4834C34.3542 14.3225 34.1659 15.2415 33.7629 16.301L33.7628 16.301L33.7596 16.3099C33.6176 16.7056 33.439 17.1144 33.2126 17.5589C33.1907 17.5919 33.1731 17.6227 33.1613 17.6438L33.1515 17.6615L33.1431 17.6799L33.1382 17.6908C33.1098 17.7429 33.0822 17.7997 33.062 17.8412C33.0559 17.8537 33.0505 17.8648 33.046 17.874C33.0386 17.8882 33.0313 17.9024 33.0239 17.9166C32.9274 18.1031 32.8305 18.2905 32.7041 18.4837L32.6969 18.4947L32.6903 18.5061C30.715 21.9046 27.2152 25.4312 24.1222 28.1692C21.4068 30.5729 19.0457 32.3344 18.3608 32.8454C18.2675 32.915 18.2053 32.9614 18.1776 32.9831L18.1774 32.9832C17.9491 33.1615 17.6806 33.25 17.4089 33.25C17.1388 33.25 16.8728 33.1645 16.6486 32.9919C16.6188 32.9689 16.5556 32.9218 16.4622 32.8524C15.6997 32.2852 12.9244 30.2211 9.88857 27.4579C6.46062 24.3377 2.78258 20.3975 1.28065 16.7848L1.27655 16.7749L1.27204 16.7653C1.26455 16.7492 1.25551 16.7263 1.24108 16.6854L1.23707 16.674L1.23251 16.6628C0.75941 15.5031 0.528608 14.4338 0.528608 13.4809C0.528608 13.4472 0.530342 13.4137 0.533031 13.365L0.535287 13.3241L0.530864 13.2834C0.515394 13.1411 0.5 12.99 0.5 12.8239C0.5 7.24946 4.85475 2.75 10.163 2.75C12.7779 2.75 15.2679 3.88338 17.0709 5.82783Z" stroke="url(#paint2_linear_599_2247)" stroke-opacity="0.1" shape-rendering="crispEdges"/>
</g>
<path d="M16.3054 20.0273L13.4999 16.1658" stroke="white" stroke-opacity="0.6" stroke-width="2.5" stroke-linecap="round"/>
<path d="M16.7034 20.25L24.5784 12.375" stroke="white" stroke-opacity="0.6" stroke-width="2.5" stroke-linecap="round"/>
</g>
<defs>
<filter id="filter0_bd_599_2247" x="-8" y="-5.75" width="50.875" height="47.5" filterUnits="userSpaceOnUse" color-interpolation-filters="sRGB">
<feFlood flood-opacity="0" result="BackgroundImageFix"/>
<feGaussianBlur in="BackgroundImageFix" stdDeviation="4"/>
<feComposite in2="SourceAlpha" operator="in" result="effect1_backgroundBlur_599_2247"/>
<feColorMatrix in="SourceAlpha" type="matrix" values="0 0 0 0 0 0 0 0 0 0 0 0 0 0 0 0 0 0 127 0" result="hardAlpha"/>
<feOffset dy="2"/>
<feGaussianBlur stdDeviation="2"/>
<feComposite in2="hardAlpha" operator="out"/>
<feColorMatrix type="matrix" values="0 0 0 0 0 0 0 0 0 0.866667 0 0 0 0 0.271896 0 0 0 0.1 0"/>
<feBlend mode="normal" in2="effect1_backgroundBlur_599_2247" result="effect2_dropShadow_599_2247"/>
<feBlend mode="normal" in="SourceGraphic" in2="effect2_dropShadow_599_2247" result="shape"/>
</filter>
<linearGradient id="paint0_linear_599_2247" x1="24.5598" y1="6.61778" x2="9.19491" y2="22.8896" gradientUnits="userSpaceOnUse">
<stop stop-color="#00B78B"/>
<stop offset="1" stop-color="#65CE85" stop-opacity="0"/>
</linearGradient>
<linearGradient id="paint1_linear_599_2247" x1="17.4375" y1="2.25" x2="17.4375" y2="33.75" gradientUnits="userSpaceOnUse">
<stop stop-color="#73DF94"/>
<stop offset="1" stop-color="#AEF7CA"/>
</linearGradient>
<linearGradient id="paint2_linear_599_2247" x1="28.8809" y1="23.0133" x2="20.137" y2="13.7482" gradientUnits="userSpaceOnUse">
<stop stop-color="white"/>
<stop offset="1" stop-color="white" stop-opacity="0"/>
</linearGradient>
<clipPath id="clip0_599_2247">
<rect width="36" height="36" fill="white"/>
</clipPath>
</defs>
</svg>
