<svg width="28" height="28" viewBox="0 0 28 28" fill="none" xmlns="http://www.w3.org/2000/svg">
<g id="&#230;&#136;&#145;&#231;&#154;&#132;&#229;&#149;&#134;&#228;&#191;&#157;" clip-path="url(#clip0_38_1251)">
<rect width="28" height="28" fill="white" fill-opacity="0.01"/>
<path id="Rectangle 1599" d="M11.8328 6.98263C15.2466 3.36742 20.9446 3.20407 24.5598 6.61778C28.175 10.0315 28.3384 15.7296 24.9247 19.3448L21.9219 22.5248C18.5082 26.14 12.8101 26.3034 9.19491 22.8896C5.5797 19.4759 5.41635 13.7779 8.83006 10.1626L11.8328 6.98263Z" fill="#67D488"/>
<g id="Vector" filter="url(#filter0_bd_38_1251)">
<path d="M27.125 9.97413C27.125 5.44032 23.5762 1.75 19.2205 1.75C17.0689 1.75 15.0326 2.68068 13.5625 4.26834C12.0904 2.68071 10.0521 1.75 7.90454 1.75C3.54681 1.75 0 5.4383 0 9.97413C0 10.1262 0.0141619 10.262 0.0262817 10.3736C0.0242662 10.4101 0.0222506 10.4466 0.0222506 10.4851C0.0222506 11.288 0.216353 12.17 0.598539 13.1069C0.610685 13.1413 0.622805 13.1738 0.636967 13.2041C3.04534 18.9971 12.3169 25.662 12.7111 25.9681C12.9558 26.1567 13.247 26.25 13.5402 26.25C13.8375 26.25 14.1308 26.1527 14.3774 25.9601C14.7151 25.6965 22.6237 19.9887 25.762 14.589C25.8813 14.4066 25.9703 14.2302 26.0492 14.078C26.0734 14.0294 26.0957 13.9808 26.122 13.9341L26.1321 13.9118C26.1422 13.8935 26.1544 13.8733 26.1665 13.857C26.3545 13.49 26.5041 13.1494 26.6235 12.8168C26.949 11.9612 27.1088 11.1988 27.1088 10.4871C27.1088 10.4323 27.1068 10.3837 27.1027 10.3431C27.1129 10.2499 27.125 10.1242 27.125 9.97413Z" fill="url(#paint0_linear_38_1251)" fill-opacity="0.4" shape-rendering="crispEdges"/>
<path d="M13.5628 5.00398L13.1959 4.6083C11.8135 3.11746 9.90591 2.25 7.90454 2.25C3.84137 2.25 0.5 5.69566 0.5 9.97413C0.5 10.0967 0.511348 10.2091 0.523355 10.3196L0.527778 10.3603L0.525522 10.4011C0.523408 10.4394 0.522251 10.4625 0.522251 10.4851C0.522251 11.2087 0.697595 12.026 1.0615 12.918L1.06605 12.9292L1.07007 12.9406C1.08103 12.9716 1.0866 12.9853 1.09005 12.9926L1.09456 13.0023L1.09866 13.0122C2.25654 15.7973 5.10029 18.8477 7.7659 21.2739C10.1216 23.4181 12.274 25.0192 12.8701 25.4626C12.9436 25.5173 12.9934 25.5543 13.0171 25.5726M13.5628 5.00398L12.7111 25.9681M13.5628 5.00398L13.9294 4.60805C15.3096 3.11747 17.215 2.25 19.2205 2.25C23.2816 2.25 26.625 5.69768 26.625 9.97413C26.625 10.0974 26.6151 10.2024 26.6057 10.2888L26.6 10.3406L26.6052 10.3925C26.6071 10.4121 26.6088 10.4435 26.6088 10.4871C26.6088 11.1229 26.4662 11.824 26.1561 12.6391L26.1561 12.639L26.1529 12.648C26.0448 12.949 25.9088 13.261 25.7358 13.601M13.5628 5.00398L25.7358 13.601M13.0171 25.5726C13.0173 25.5728 13.0175 25.573 13.0178 25.5732L12.7111 25.9681M13.0171 25.5726C13.0168 25.5724 13.0166 25.5723 13.0164 25.5721L12.7111 25.9681M13.0171 25.5726C13.1713 25.6912 13.354 25.75 13.5402 25.75C13.727 25.75 13.9117 25.6893 14.0696 25.566L14.0698 25.5659C14.0919 25.5486 14.1411 25.5119 14.2147 25.457C14.7507 25.0571 16.5812 23.6912 18.688 21.8262C21.092 19.6982 23.8028 16.965 25.3298 14.3378L25.3364 14.3264L25.3435 14.3154C25.4386 14.1701 25.5116 14.0291 25.5869 13.8834C25.5924 13.8729 25.5978 13.8624 25.6033 13.8518M12.7111 25.9681C12.9558 26.1567 13.247 26.25 13.5402 26.25C13.8375 26.25 14.1308 26.1527 14.3774 25.9601C14.3971 25.9447 14.4426 25.9108 14.5114 25.8594C15.6219 25.0314 22.8068 19.6736 25.762 14.589C25.8716 14.4214 25.9556 14.259 26.0297 14.1157C26.0363 14.103 26.0428 14.0904 26.0492 14.078M25.6033 13.8518C25.6027 13.8529 25.6022 13.854 25.6017 13.855L26.0492 14.078M25.6033 13.8518C25.604 13.8505 25.6046 13.8492 25.6053 13.8479L26.0492 14.078M25.6033 13.8518C25.6061 13.8461 25.6096 13.839 25.6136 13.8307C25.6287 13.7996 25.6514 13.753 25.6746 13.71M26.0492 14.078C26.0561 14.0642 26.0629 14.0503 26.0696 14.0365C26.0865 14.0018 26.1032 13.9675 26.122 13.9341M26.122 13.9341L25.6667 13.7274L25.6746 13.71M26.122 13.9341L25.8755 13.7953L25.6863 13.6888C25.6833 13.6942 25.6802 13.6997 25.6772 13.7053C25.6763 13.7069 25.6755 13.7084 25.6746 13.71M26.122 13.9341L25.7358 13.601M25.6746 13.71L25.6768 13.7051L25.6852 13.6867L25.695 13.6691C25.7041 13.6527 25.7181 13.6282 25.7358 13.601" stroke="url(#paint1_linear_38_1251)" stroke-opacity="0.1" shape-rendering="crispEdges"/>
</g>
<path id="Vector 87" d="M12.6821 15.5768L10.5001 12.5734" stroke="white" stroke-opacity="0.6" stroke-width="2" stroke-linecap="round"/>
<path id="Vector 86" d="M12.9917 15.75L19.1167 9.625" stroke="white" stroke-opacity="0.6" stroke-width="2" stroke-linecap="round"/>
</g>
<defs>
<filter id="filter0_bd_38_1251" x="-6" y="-4.25" width="39.125" height="36.5" filterUnits="userSpaceOnUse" color-interpolation-filters="sRGB">
<feFlood flood-opacity="0" result="BackgroundImageFix"/>
<feGaussianBlur in="BackgroundImageFix" stdDeviation="3"/>
<feComposite in2="SourceAlpha" operator="in" result="effect1_backgroundBlur_38_1251"/>
<feColorMatrix in="SourceAlpha" type="matrix" values="0 0 0 0 0 0 0 0 0 0 0 0 0 0 0 0 0 0 127 0" result="hardAlpha"/>
<feOffset dy="2"/>
<feGaussianBlur stdDeviation="2"/>
<feComposite in2="hardAlpha" operator="out"/>
<feColorMatrix type="matrix" values="0 0 0 0 0 0 0 0 0 0.866667 0 0 0 0 0.271896 0 0 0 0.1 0"/>
<feBlend mode="normal" in2="effect1_backgroundBlur_38_1251" result="effect2_dropShadow_38_1251"/>
<feBlend mode="normal" in="SourceGraphic" in2="effect2_dropShadow_38_1251" result="shape"/>
</filter>
<linearGradient id="paint0_linear_38_1251" x1="13.5625" y1="1.75" x2="13.5625" y2="26.25" gradientUnits="userSpaceOnUse">
<stop stop-color="#73DF94"/>
<stop offset="1" stop-color="#AEF7CA"/>
</linearGradient>
<linearGradient id="paint1_linear_38_1251" x1="22.4629" y1="17.8993" x2="15.6621" y2="10.693" gradientUnits="userSpaceOnUse">
<stop stop-color="white"/>
<stop offset="1" stop-color="white" stop-opacity="0"/>
</linearGradient>
<clipPath id="clip0_38_1251">
<rect width="28" height="28" fill="white"/>
</clipPath>
</defs>
</svg>
