<svg xmlns="http://www.w3.org/2000/svg" width="20" height="20" viewBox="0 0 20 20" fill="none">
  <g clip-path="url(#clip0_38_1268)">
    <path d="M10.0001 18.3333C14.6025 18.3333 18.3334 14.6024 18.3334 10C18.3334 5.39762 14.6025 1.66666 10.0001 1.66666C5.39771 1.66666 1.66675 5.39762 1.66675 10C1.66675 14.6024 5.39771 18.3333 10.0001 18.3333Z" stroke="#595865" stroke-width="1.4" stroke-linecap="round" stroke-linejoin="round"/>
    <path d="M12.0833 10C12.4953 10 12.8981 9.87783 13.2407 9.64891C13.5833 9.41996 13.8503 9.09458 14.008 8.71391C14.1657 8.33325 14.207 7.91437 14.1265 7.51025C14.0462 7.10608 13.8478 6.73487 13.5564 6.44354C13.265 6.15216 12.8938 5.95375 12.4897 5.87337C12.0855 5.79296 11.6667 5.83425 11.286 5.99191C10.9053 6.14958 10.58 6.41662 10.351 6.75925C10.1221 7.10183 9.99992 7.50462 9.99992 7.91666V12.0833C9.99992 12.4954 9.87776 12.8982 9.64884 13.2408C9.41988 13.5834 9.09455 13.8504 8.71384 14.0081C8.33317 14.1657 7.9143 14.207 7.51017 14.1266C7.106 14.0462 6.7348 13.8478 6.44346 13.5565C6.15209 13.2651 5.95367 12.8939 5.8733 12.4898C5.79288 12.0856 5.83417 11.6667 5.99184 11.2861C6.14951 10.9054 6.41655 10.58 6.75917 10.3511C7.10176 10.1222 7.50455 10 7.91659 10" stroke="#3D86F2" stroke-width="1.4" stroke-linecap="round" stroke-linejoin="round"/>
  </g>
  <defs>
    <clipPath id="clip0_38_1268">
      <rect width="20" height="20" fill="white"/>
    </clipPath>
  </defs>
</svg>