<svg xmlns="http://www.w3.org/2000/svg" width="18" height="18" viewBox="0 0 18 18" fill="none">
  <path d="M15.9975 3.84515V3.28293L14.777 3.2659H14.7732C13.8539 3.21773 12.9485 3.02917 12.0912 2.70735C10.6601 2.15121 9.74408 1.5172 9.73648 1.5111L8.99682 1L8.26859 1.50747C8.23053 1.53422 7.34118 2.14998 5.91009 2.70733C5.05332 3.03512 4.14565 3.22389 3.22428 3.2659L2 3.28294V10.0368C2 11.5884 2.92613 13.3286 4.54624 14.8108C5.24403 15.4496 6.0192 15.9936 6.79185 16.383C7.59618 16.7882 8.35739 17 9.00063 17C9.64005 17 10.4089 16.7834 11.2234 16.3733C12.0374 15.952 12.7877 15.4263 13.4537 14.8108C14.1621 14.1719 14.7649 13.4333 15.2413 12.6203C15.745 11.7368 16 10.868 16 10.0356L15.9975 3.84637L15.9975 3.84515Z" fill="#3D86F2"/>
  <path d="M11.8672 6.14646C11.7813 6.05263 11.6653 6 11.5444 6C11.4235 6 11.3075 6.05263 11.2216 6.14646L8.10518 9.58531L6.7779 8.12178C6.69197 8.02795 6.57596 7.97532 6.45507 7.97532C6.33418 7.97532 6.21817 8.02795 6.13224 8.12178C6.04751 8.21655 6 8.34433 6 8.47746C6 8.61059 6.04751 8.73837 6.13224 8.83314L7.78236 10.654C7.86841 10.7475 7.98437 10.8 8.10518 10.8C8.22599 10.8 8.34194 10.7475 8.42799 10.654L11.8673 6.85782C11.9523 6.763 12 6.63499 12 6.50159C12 6.36819 11.9523 6.24018 11.8673 6.14536L11.8672 6.14646Z" fill="white"/>
</svg>