<svg width="18" height="18" viewBox="0 0 18 18" fill="none" xmlns="http://www.w3.org/2000/svg">
<path d="M13.2188 16.9225H4.78125C3.18164 16.9225 1.88086 15.6217 1.88086 14.0221V8.74863C1.88086 8.31094 2.23594 7.95762 2.67188 7.95762C3.10781 7.95762 3.46289 8.31094 3.46289 8.74863V14.0221C3.46289 14.7498 4.05352 15.3404 4.78125 15.3404H13.2188C13.9465 15.3404 14.5371 14.7498 14.5371 14.0221V8.74863C14.5371 8.31094 14.8922 7.95762 15.3281 7.95762C15.7641 7.95762 16.1191 8.31094 16.1191 8.74863V14.0221C16.1191 15.6199 14.8184 16.9225 13.2188 16.9225Z" fill="#333333"/>
<path d="M16.9102 7.95762C16.7467 7.95762 16.5832 7.9084 16.4426 7.80469L9.78047 2.91797C9.31465 2.57696 8.68711 2.57696 8.22129 2.91797L1.55918 7.80469C1.20762 8.06309 0.711917 7.98751 0.453519 7.63419C0.19512 7.28262 0.272464 6.78692 0.624027 6.52852L7.28614 1.6418C8.3127 0.889459 9.69082 0.889459 10.7156 1.6418L17.3777 6.52852C17.7293 6.78692 17.8066 7.28262 17.5482 7.63419C17.3936 7.84512 17.1527 7.95762 16.9102 7.95762Z" fill="#333333"/>
<path d="M6 11H12" stroke="#333333" stroke-width="1.5" stroke-linecap="round"/>
</svg>
