<svg width="25" height="24" viewBox="0 0 25 24" fill="none" xmlns="http://www.w3.org/2000/svg">
<g id="label/divide/no">
<path id="Subtract" fill-rule="evenodd" clip-rule="evenodd" d="M1.5 5C1.5 2.79086 3.29086 1 5.5 1H19.5C21.7091 1 23.5 2.79086 23.5 5V19C23.5 21.2091 21.7091 23 19.5 23H5.5C3.29086 23 1.5 21.2091 1.5 19V5ZM7.6 9C7.6 8.50294 8.00294 8.1 8.5 8.1H9C9.49706 8.1 9.9 8.50294 9.9 9C9.9 9.49706 9.49706 9.9 9 9.9H8.5C8.00294 9.9 7.6 9.49706 7.6 9ZM8.5 13.1C8.00294 13.1 7.6 13.5029 7.6 14C7.6 14.4971 8.00294 14.9 8.5 14.9H9C9.49706 14.9 9.9 14.4971 9.9 14C9.9 13.5029 9.49706 13.1 9 13.1H8.5ZM10.6 9C10.6 8.50294 11.0029 8.1 11.5 8.1H17.5C17.9971 8.1 18.4 8.50294 18.4 9C18.4 9.49706 17.9971 9.9 17.5 9.9H11.5C11.0029 9.9 10.6 9.49706 10.6 9ZM11.5 13.1C11.0029 13.1 10.6 13.5029 10.6 14C10.6 14.4971 11.0029 14.9 11.5 14.9H17.5C17.9971 14.9 18.4 14.4971 18.4 14C18.4 13.5029 17.9971 13.1 17.5 13.1H11.5Z" fill="#DADFE9"/>
</g>
</svg>
