<svg width="25" height="24" viewBox="0 0 25 24" fill="none" xmlns="http://www.w3.org/2000/svg">
<g id="label/task/no">
<g id="Union">
<path fill-rule="evenodd" clip-rule="evenodd" d="M12.5 5C14.0142 5 15.3319 4.15865 16.0111 2.91794C16.5414 1.94905 17.3954 1 18.5 1H20.5C22.1569 1 23.5 2.34315 23.5 4V20C23.5 21.6569 22.1569 23 20.5 23H4.5C2.84315 23 1.5 21.6569 1.5 20V4C1.5 2.34315 2.84315 1 4.5 1H6.5C7.60457 1 8.45855 1.94905 8.98894 2.91794C9.66813 4.15865 10.9858 5 12.5 5ZM18.1364 9.3636C18.4879 9.71507 18.4879 10.2849 18.1364 10.6364L13.5506 15.2222C12.4181 16.3547 10.5819 16.3547 9.4494 15.2222L7.86361 13.6364C7.51214 13.2849 7.51214 12.7151 7.86361 12.3636C8.21508 12.0121 8.78493 12.0121 9.1364 12.3636L10.7222 13.9494C11.1518 14.379 11.8482 14.379 12.2778 13.9494L16.8636 9.3636C17.2151 9.01213 17.7849 9.01213 18.1364 9.3636Z" fill="#3D86F2"/>
<path d="M9.66436 1.98189C9.48368 1.46 9.94771 1 10.5 1H14.5C15.0523 1 15.5163 1.46 15.3356 1.98189C14.9289 3.15653 13.813 4 12.5 4C11.187 4 10.071 3.15653 9.66436 1.98189Z" fill="#3D86F2"/>
</g>
</g>
</svg>
