<?xml version="1.0" standalone="no"?><!DOCTYPE svg PUBLIC "-//W3C//DTD SVG 1.1//EN" "http://www.w3.org/Graphics/SVG/1.1/DTD/svg11.dtd"><svg t="1733486989910" class="icon" viewBox="0 0 1024 1024" version="1.1" xmlns="http://www.w3.org/2000/svg" p-id="2394" xmlns:xlink="http://www.w3.org/1999/xlink" width="200" height="200"><path d="M0 0h1024v1024H0z" fill="#FFFFFF" fill-opacity="0" p-id="2395"></path><path d="M213.333333 85.333333h469.333334l213.333333 215.296V853.333333a85.333333 85.333333 0 0 1-85.333333 85.333334H213.333333a85.333333 85.333333 0 0 1-85.333333-85.333334V170.666667a85.333333 85.333333 0 0 1 85.333333-85.333334z" fill="#A8BDE3" p-id="2396"></path><path d="M682.666667 85.333333v189.696c0 13.056 10.709333 23.637333 23.893333 23.637334H896l-213.333333-213.333334z" fill="#8595B2" p-id="2397"></path><path d="M517.632 352.597333c-37.888 0-67.584 10.752-89.6 32.256-22.528 21.504-33.28 51.2-33.28 89.088h58.368c0-22.016 4.096-38.912 12.8-50.688 10.24-13.824 26.112-20.48 48.128-20.48 17.408 0 31.232 4.608 40.96 14.336 9.216 9.728 14.336 23.04 14.336 39.936 0 12.8-4.608 25.088-13.824 36.352l-6.144 7.168c-33.28 29.696-53.248 51.2-59.904 65.024-7.168 13.824-10.24 30.72-10.24 50.176v7.168h58.88v-7.168c0-12.288 2.56-23.552 7.68-33.792 4.608-9.216 11.264-17.92 20.48-25.088 24.576-21.504 39.424-35.328 44.032-40.448 12.288-16.384 18.944-37.376 18.944-62.976 0-31.232-10.24-55.808-30.72-73.728-20.48-18.432-47.616-27.136-80.896-27.136z m-9.216 295.424a37.418667 37.418667 0 0 0-27.648 10.752c-8.192 7.168-11.776 16.384-11.776 27.648s3.584 20.48 11.776 27.648a37.802667 37.802667 0 0 0 27.648 11.264c11.264 0 20.48-3.584 28.672-10.752a38.997333 38.997333 0 0 0 11.264-28.16 37.802667 37.802667 0 0 0-11.264-27.648 40.704 40.704 0 0 0-28.672-10.752z" fill="#FFFFFF" p-id="2398"></path></svg>