<?xml version="1.0" standalone="no"?><!DOCTYPE svg PUBLIC "-//W3C//DTD SVG 1.1//EN" "http://www.w3.org/Graphics/SVG/1.1/DTD/svg11.dtd"><svg t="1733486928585" class="icon" viewBox="0 0 1024 1024" version="1.1" xmlns="http://www.w3.org/2000/svg" p-id="1386" xmlns:xlink="http://www.w3.org/1999/xlink" width="200" height="200"><path d="M0 0h1024v1024H0z" fill="#D8D8D8" fill-opacity="0" p-id="1387"></path><path d="M341.333333 85.333333h384.128L938.666667 300.629333V853.333333a85.333333 85.333333 0 0 1-85.333334 85.333334H341.333333a85.333333 85.333333 0 0 1-85.333333-85.333334V170.666667a85.333333 85.333333 0 0 1 85.333333-85.333334z" fill="#EEEEEE" p-id="1388"></path><path d="M725.333333 85.333333v189.696c0 13.056 10.709333 23.637333 23.893334 23.637334H938.666667l-213.333334-213.333334z" fill="#FF7878" p-id="1389"></path><path d="M85.333333 341.333333m42.666667 0l682.666667 0q42.666667 0 42.666666 42.666667l0 384q0 42.666667-42.666666 42.666667l-682.666667 0q-42.666667 0-42.666667-42.666667l0-384q0-42.666667 42.666667-42.666667Z" fill="#FF7878" p-id="1390"></path><path d="M667.093333 636.885333c-34.730667 0-69.12 4.565333-103.850666 10.496-40.96-34.133333-75.690667-74.453333-102.101334-119.381333 28.16-83.584 29.653333-140.288 8.32-167.168A56.533333 56.533333 0 0 0 426.666667 341.461333c-21.333333-1.322667-41.258667 7.552-51.029334 23.893334-29.696 44.928 13.312 133.12 33.237334 168.832a999.936 999.936 0 0 1-87.253334 185.173333c-156.714667 61.312-160 98.688-160 112.128 0 16.384 9.813333 32.768 27.904 40.32 6.528 4.266667 16.341333 5.888 24.661334 5.888 41.258667 0 89.002667-41.898667 140.074666-124.16 64.426667-23.893333 128.469333-43.264 196.181334-56.746667 34.730667 26.88 77.44 41.984 121.984 44.928 28.16 0 82.474667 0 81.92-51.072 1.749333-19.370667-9.813333-52.138667-87.296-53.76z" fill="#F25555" p-id="1391"></path><path d="M220.16 827.136l-4.565333 1.834667c13.482667-21.674667 31.232-38.528 53.888-48.768-11.861333 21.973333-28.288 38.528-49.322667 46.933333zM429.226667 394.112c0.426667-2.005333 1.237333-4.010667 1.706666-4.010667l1.365334 2.005334c2.133333 31.402667 2.133333 64.426667-0.426667 95.530666a603.946667 603.946667 0 0 1-2.645333-93.525333zM535.04 703.189333c-32.426667 6.826667-68.053333 16.341333-100.522667 27.050667l-3.370666 1.194667 0.426666-2.432c16.256-29.696 31.146667-60.885333 44.458667-92.074667l1.578667-2.986667 1.621333 1.792c16.469333 22.869333 37.376 46.506667 59.733333 66.730667l-3.882666 0.725333zM679.125333 733.653333a182.784 182.784 0 0 1-32.426666-3.712c9.728-0.938667 18.261333-0.938667 27.946666-0.938666 21.546667 0 25.813333 2.389333 26.026667 3.712-6.442667 0.938667-13.994667 1.450667-21.546667 0.938666z" fill="#F25555" p-id="1392"></path><path d="M666.666667 681.770667c-14.762667 0-27.776 0-42.581334 2.901333 16.597333 7.296 32.853333 10.197333 49.408 11.52 11.52 1.536 23.04 0 32.853334-2.901333-0.341333-4.181333-6.826667-11.52-39.68-11.52z m-224.512-79.36l-1.792-2.048-1.792 3.413333a1190.997333 1190.997333 0 0 1-49.237334 102.4l-0.469333 2.645333 3.712-1.28c35.968-11.946667 75.52-22.528 111.488-30.08l4.266667-0.853333a485.546667 485.546667 0 0 1-66.176-74.24z m-11.477334-216.021334l-5.418666-1.621333a11.946667 11.946667 0 0 0-6.741334 3.242667c-6.826667 25.130667-1.834667 51.84 10.325334 75.605333 10.24-25.088 10.24-51.797333 1.834666-77.226667zM211.498667 834.133333l4.949333-1.621333a101.376 101.376 0 0 0 53.546667-41.984 128.128 128.128 0 0 0-58.496 43.605333z m460.970666-92.373333c-44.544-2.986667-87.253333-18.005333-122.026666-44.885333-67.626667 13.44-131.754667 32.768-196.138667 56.746666-51.072 82.218667-98.816 124.16-140.074667 124.16-8.32 0-18.133333-1.621333-24.661333-5.973333a43.861333 43.861333 0 0 1-27.904-40.277333c0-13.44 3.285333-50.773333 160-112.085334a997.973333 997.973333 0 0 0 87.253333-185.173333c-19.882667-35.797333-62.933333-123.946667-33.28-168.832 9.813333-16.384 29.696-25.258667 51.072-23.893333 16.64 0 32.938667 7.509333 42.752 19.328 21.333333 26.88 19.882667 83.626667-8.32 167.168a459.178667 459.178667 0 0 0 102.101334 119.381333c34.730667-5.930667 69.12-10.496 103.850666-10.496 77.482667 1.621333 89.045333 34.389333 87.253334 53.76 0.64 51.072-53.674667 51.072-81.92 51.072z" fill="#FFFFFF" p-id="1393"></path></svg>