<?xml version="1.0" standalone="no"?><!DOCTYPE svg PUBLIC "-//W3C//DTD SVG 1.1//EN" "http://www.w3.org/Graphics/SVG/1.1/DTD/svg11.dtd"><svg t="1733486945923" class="icon" viewBox="0 0 1024 1024" version="1.1" xmlns="http://www.w3.org/2000/svg" p-id="1896" xmlns:xlink="http://www.w3.org/1999/xlink" width="200" height="200"><path d="M0 0h1024v1024H0z" fill="#D8D8D8" fill-opacity="0" p-id="1897"></path><path d="M341.333333 85.333333h384.128L938.666667 300.629333V853.333333a85.333333 85.333333 0 0 1-85.333334 85.333334H341.333333a85.333333 85.333333 0 0 1-85.333333-85.333334V170.666667a85.333333 85.333333 0 0 1 85.333333-85.333334z" fill="#EEEEEE" p-id="1898"></path><path d="M725.333333 85.333333v189.696c0 13.056 10.709333 23.637333 23.893334 23.637334H938.666667l-213.333334-213.333334z" fill="#4297FC" p-id="1899"></path><path d="M85.333333 341.333333m42.666667 0l682.666667 0q42.666667 0 42.666666 42.666667l0 384q0 42.666667-42.666666 42.666667l-682.666667 0q-42.666667 0-42.666667-42.666667l0-384q0-42.666667 42.666667-42.666667Z" fill="#4297FC" p-id="1900"></path><path d="M374.826667 420.693333l87.466666 304.64h53.333334l59.733333-229.12h1.706667l59.306666 229.12h52.906667l87.893333-304.64h-56.32l-57.173333 231.68h-1.706667l-60.16-231.68h-51.626666l-60.16 231.68h-1.706667l-57.173333-231.68z" fill="#EEEEEE" p-id="1901"></path></svg>